<svg version="1.2" xmlns="http://www.w3.org/2000/svg" viewBox="0 0 1695 959" width="1695" height="959">
	<title>image</title>
	<defs>
		<linearGradient id="g1" x2="1" gradientUnits="userSpaceOnUse" gradientTransform="matrix(-1695,-0.5,.283,-959.34,1695,479.5)">
			<stop offset="0" stop-color="#6a58ff"/>
			<stop offset=".289" stop-color="#b5acff"/>
			<stop offset="1" stop-color="#ffffff"/>
		</linearGradient>
	</defs>
	<style>
		.s0 { fill: url(#g1) } 
		.s1 { opacity: .2;fill: none;stroke: #ffffff } 
	</style>
	<path id="Layer" class="s0" d="m0 0h1695v959h-1695z"/>
	<path id="Layer" class="s1" d="m0 0h80.7v38.3h-80.7z"/>
	<path id="Layer" class="s1" d="m0 38.3h80.7v38.3h-80.7z"/>
	<path id="Layer" class="s1" d="m0 76.6h80.7v38.2h-80.7z"/>
	<path id="Layer" class="s1" d="m0 114.8h80.7v38.3h-80.7z"/>
	<path id="Layer" class="s1" d="m0 153.1h80.7v38.3h-80.7z"/>
	<path id="Layer" class="s1" d="m0 191.4h80.7v38.3h-80.7z"/>
	<path id="Layer" class="s1" d="m0 229.7h80.7v38.3h-80.7z"/>
	<path id="Layer" class="s1" d="m0 268h80.7v38.2h-80.7z"/>
	<path id="Layer" class="s1" d="m0 306.2h80.7v38.3h-80.7z"/>
	<path id="Layer" class="s1" d="m0 344.5h80.7v38.3h-80.7z"/>
	<path id="Layer" class="s1" d="m0 382.8h80.7v38.3h-80.7z"/>
	<path id="Layer" class="s1" d="m0 421.1h80.7v38.3h-80.7z"/>
	<path id="Layer" class="s1" d="m0 459.4h80.7v38.2h-80.7z"/>
	<path id="Layer" class="s1" d="m0 497.6h80.7v38.3h-80.7z"/>
	<path id="Layer" class="s1" d="m0 535.9h80.7v38.3h-80.7z"/>
	<path id="Layer" class="s1" d="m0 574.2h80.7v38.3h-80.7z"/>
	<path id="Layer" class="s1" d="m0 612.5h80.7v38.3h-80.7z"/>
	<path id="Layer" class="s1" d="m0 650.8h80.7v38.3h-80.7z"/>
	<path id="Layer" class="s1" d="m0 689.3h80.7v38.3h-80.7z"/>
	<path id="Layer" class="s1" d="m0 727.9h80.7v38.3h-80.7z"/>
	<path id="Layer" class="s1" d="m0 766.5h80.7v38.2h-80.7z"/>
	<path id="Layer" class="s1" d="m0 805h80.7v38.3h-80.7z"/>
	<path id="Layer" class="s1" d="m0 843.6h80.7v38.3h-80.7z"/>
	<path id="Layer" class="s1" d="m0 882.2h80.7v38.2h-80.7z"/>
	<path id="Layer" class="s1" d="m0 920.7h80.7v38.3h-80.7z"/>
	<path id="Layer" class="s1" d="m80.7 0h80.7v38.3h-80.7z"/>
	<path id="Layer" class="s1" d="m80.7 38.3h80.7v38.3h-80.7z"/>
	<path id="Layer" class="s1" d="m80.7 76.6h80.7v38.2h-80.7z"/>
	<path id="Layer" class="s1" d="m80.7 114.8h80.7v38.3h-80.7z"/>
	<path id="Layer" class="s1" d="m80.7 153.1h80.7v38.3h-80.7z"/>
	<path id="Layer" class="s1" d="m80.7 191.4h80.7v38.3h-80.7z"/>
	<path id="Layer" class="s1" d="m80.7 229.7h80.7v38.3h-80.7z"/>
	<path id="Layer" class="s1" d="m80.7 268h80.7v38.2h-80.7z"/>
	<path id="Layer" class="s1" d="m80.7 306.2h80.7v38.3h-80.7z"/>
	<path id="Layer" class="s1" d="m80.7 344.5h80.7v38.3h-80.7z"/>
	<path id="Layer" class="s1" d="m80.7 382.8h80.7v38.3h-80.7z"/>
	<path id="Layer" class="s1" d="m80.7 421.1h80.7v38.3h-80.7z"/>
	<path id="Layer" class="s1" d="m80.7 459.4h80.7v38.2h-80.7z"/>
	<path id="Layer" class="s1" d="m80.7 497.6h80.7v38.3h-80.7z"/>
	<path id="Layer" class="s1" d="m80.7 535.9h80.7v38.3h-80.7z"/>
	<path id="Layer" class="s1" d="m80.7 574.2h80.7v38.3h-80.7z"/>
	<path id="Layer" class="s1" d="m80.7 612.5h80.7v38.3h-80.7z"/>
	<path id="Layer" class="s1" d="m80.7 650.8h80.7v38.3h-80.7z"/>
	<path id="Layer" class="s1" d="m80.7 689.3h80.7v38.3h-80.7z"/>
	<path id="Layer" class="s1" d="m80.7 727.9h80.7v38.3h-80.7z"/>
	<path id="Layer" class="s1" d="m80.7 766.5h80.7v38.2h-80.7z"/>
	<path id="Layer" class="s1" d="m80.7 805h80.7v38.3h-80.7z"/>
	<path id="Layer" class="s1" d="m80.7 843.6h80.7v38.3h-80.7z"/>
	<path id="Layer" class="s1" d="m80.7 920.7h80.7v38.3h-80.7z"/>
	<path id="Layer" class="s1" d="m80.7 882.2h80.7v38.2h-80.7z"/>
	<path id="Layer" class="s1" d="m161.4 0h80.7v38.3h-80.7z"/>
	<path id="Layer" class="s1" d="m161.4 38.3h80.7v38.3h-80.7z"/>
	<path id="Layer" class="s1" d="m161.4 76.6h80.7v38.2h-80.7z"/>
	<path id="Layer" class="s1" d="m161.4 114.8h80.7v38.3h-80.7z"/>
	<path id="Layer" class="s1" d="m161.4 153.1h80.7v38.3h-80.7z"/>
	<path id="Layer" class="s1" d="m161.4 191.4h80.7v38.3h-80.7z"/>
	<path id="Layer" class="s1" d="m161.4 229.7h80.7v38.3h-80.7z"/>
	<path id="Layer" class="s1" d="m161.4 268h80.7v38.2h-80.7z"/>
	<path id="Layer" class="s1" d="m161.4 306.2h80.7v38.3h-80.7z"/>
	<path id="Layer" class="s1" d="m161.4 344.5h80.7v38.3h-80.7z"/>
	<path id="Layer" class="s1" d="m161.4 382.8h80.7v38.3h-80.7z"/>
	<path id="Layer" class="s1" d="m161.4 421.1h80.7v38.3h-80.7z"/>
	<path id="Layer" class="s1" d="m161.4 459.4h80.7v38.2h-80.7z"/>
	<path id="Layer" class="s1" d="m161.4 497.6h80.7v38.3h-80.7z"/>
	<path id="Layer" class="s1" d="m161.4 535.9h80.7v38.3h-80.7z"/>
	<path id="Layer" class="s1" d="m161.4 574.2h80.7v38.3h-80.7z"/>
	<path id="Layer" class="s1" d="m161.4 612.5h80.7v38.3h-80.7z"/>
	<path id="Layer" class="s1" d="m161.4 650.8h80.7v38.3h-80.7z"/>
	<path id="Layer" class="s1" d="m161.4 689.3h80.7v38.3h-80.7z"/>
	<path id="Layer" class="s1" d="m161.4 727.9h80.7v38.3h-80.7z"/>
	<path id="Layer" class="s1" d="m161.4 766.5h80.7v38.2h-80.7z"/>
	<path id="Layer" class="s1" d="m161.4 805h80.7v38.3h-80.7z"/>
	<path id="Layer" class="s1" d="m161.4 920.7h80.7v38.3h-80.7z"/>
	<path id="Layer" class="s1" d="m161.4 843.6h80.7v38.3h-80.7z"/>
	<path id="Layer" class="s1" d="m161.4 882.2h80.7v38.2h-80.7z"/>
	<path id="Layer" class="s1" d="m242.1 0h80.7v38.3h-80.7z"/>
	<path id="Layer" class="s1" d="m242.1 38.3h80.7v38.3h-80.7z"/>
	<path id="Layer" class="s1" d="m242.1 76.6h80.7v38.2h-80.7z"/>
	<path id="Layer" class="s1" d="m242.1 114.8h80.7v38.3h-80.7z"/>
	<path id="Layer" class="s1" d="m242.1 153.1h80.7v38.3h-80.7z"/>
	<path id="Layer" class="s1" d="m242.1 191.4h80.7v38.3h-80.7z"/>
	<path id="Layer" class="s1" d="m242.1 229.7h80.7v38.3h-80.7z"/>
	<path id="Layer" class="s1" d="m242.1 268h80.7v38.2h-80.7z"/>
	<path id="Layer" class="s1" d="m242.1 306.2h80.7v38.3h-80.7z"/>
	<path id="Layer" class="s1" d="m242.1 344.5h80.7v38.3h-80.7z"/>
	<path id="Layer" class="s1" d="m242.1 382.8h80.7v38.3h-80.7z"/>
	<path id="Layer" class="s1" d="m242.1 421.1h80.7v38.3h-80.7z"/>
	<path id="Layer" class="s1" d="m242.1 459.4h80.7v38.2h-80.7z"/>
	<path id="Layer" class="s1" d="m242.1 497.6h80.7v38.3h-80.7z"/>
	<path id="Layer" class="s1" d="m242.1 535.9h80.7v38.3h-80.7z"/>
	<path id="Layer" class="s1" d="m242.1 574.2h80.7v38.3h-80.7z"/>
	<path id="Layer" class="s1" d="m242.1 612.5h80.7v38.3h-80.7z"/>
	<path id="Layer" class="s1" d="m242.1 650.8h80.7v38.3h-80.7z"/>
	<path id="Layer" class="s1" d="m242.1 689.3h80.7v38.3h-80.7z"/>
	<path id="Layer" class="s1" d="m242.1 727.9h80.7v38.3h-80.7z"/>
	<path id="Layer" class="s1" d="m242.1 766.5h80.7v38.2h-80.7z"/>
	<path id="Layer" class="s1" d="m242.1 920.7h80.7v38.3h-80.7z"/>
	<path id="Layer" class="s1" d="m242.1 805h80.7v38.3h-80.7z"/>
	<path id="Layer" class="s1" d="m242.1 843.6h80.7v38.3h-80.7z"/>
	<path id="Layer" class="s1" d="m242.1 882.2h80.7v38.2h-80.7z"/>
	<path id="Layer" class="s1" d="m322.8 0h80.7v38.3h-80.7z"/>
	<path id="Layer" class="s1" d="m322.8 38.3h80.7v38.3h-80.7z"/>
	<path id="Layer" class="s1" d="m322.8 76.6h80.7v38.2h-80.7z"/>
	<path id="Layer" class="s1" d="m322.8 114.8h80.7v38.3h-80.7z"/>
	<path id="Layer" class="s1" d="m322.8 153.1h80.7v38.3h-80.7z"/>
	<path id="Layer" class="s1" d="m322.8 191.4h80.7v38.3h-80.7z"/>
	<path id="Layer" class="s1" d="m322.8 229.7h80.7v38.3h-80.7z"/>
	<path id="Layer" class="s1" d="m322.8 268h80.7v38.2h-80.7z"/>
	<path id="Layer" class="s1" d="m322.8 306.2h80.7v38.3h-80.7z"/>
	<path id="Layer" class="s1" d="m322.8 344.5h80.7v38.3h-80.7z"/>
	<path id="Layer" class="s1" d="m322.8 382.8h80.7v38.3h-80.7z"/>
	<path id="Layer" class="s1" d="m322.8 421.1h80.7v38.3h-80.7z"/>
	<path id="Layer" class="s1" d="m322.8 459.4h80.7v38.2h-80.7z"/>
	<path id="Layer" class="s1" d="m322.8 497.6h80.7v38.3h-80.7z"/>
	<path id="Layer" class="s1" d="m322.8 535.9h80.7v38.3h-80.7z"/>
	<path id="Layer" class="s1" d="m322.8 574.2h80.7v38.3h-80.7z"/>
	<path id="Layer" class="s1" d="m322.8 612.5h80.7v38.3h-80.7z"/>
	<path id="Layer" class="s1" d="m322.8 650.8h80.7v38.3h-80.7z"/>
	<path id="Layer" class="s1" d="m322.8 689.3h80.7v38.3h-80.7z"/>
	<path id="Layer" class="s1" d="m322.8 727.9h80.7v38.3h-80.7z"/>
	<path id="Layer" class="s1" d="m322.8 920.7h80.7v38.3h-80.7z"/>
	<path id="Layer" class="s1" d="m322.8 766.5h80.7v38.2h-80.7z"/>
	<path id="Layer" class="s1" d="m322.8 805h80.7v38.3h-80.7z"/>
	<path id="Layer" class="s1" d="m322.8 843.6h80.7v38.3h-80.7z"/>
	<path id="Layer" class="s1" d="m322.8 882.2h80.7v38.2h-80.7z"/>
	<path id="Layer" class="s1" d="m403.5 0h80.7v38.3h-80.7z"/>
	<path id="Layer" class="s1" d="m403.5 38.3h80.7v38.3h-80.7z"/>
	<path id="Layer" class="s1" d="m403.5 76.6h80.7v38.2h-80.7z"/>
	<path id="Layer" class="s1" d="m403.5 114.8h80.7v38.3h-80.7z"/>
	<path id="Layer" class="s1" d="m403.5 153.1h80.7v38.3h-80.7z"/>
	<path id="Layer" class="s1" d="m403.5 191.4h80.7v38.3h-80.7z"/>
	<path id="Layer" class="s1" d="m403.5 229.7h80.7v38.3h-80.7z"/>
	<path id="Layer" class="s1" d="m403.5 268h80.7v38.2h-80.7z"/>
	<path id="Layer" class="s1" d="m403.5 306.2h80.7v38.3h-80.7z"/>
	<path id="Layer" class="s1" d="m403.5 344.5h80.7v38.3h-80.7z"/>
	<path id="Layer" class="s1" d="m403.5 382.8h80.7v38.3h-80.7z"/>
	<path id="Layer" class="s1" d="m403.5 421.1h80.7v38.3h-80.7z"/>
	<path id="Layer" class="s1" d="m403.5 459.4h80.7v38.2h-80.7z"/>
	<path id="Layer" class="s1" d="m403.5 497.6h80.7v38.3h-80.7z"/>
	<path id="Layer" class="s1" d="m403.5 535.9h80.7v38.3h-80.7z"/>
	<path id="Layer" class="s1" d="m403.5 574.2h80.7v38.3h-80.7z"/>
	<path id="Layer" class="s1" d="m403.5 612.5h80.7v38.3h-80.7z"/>
	<path id="Layer" class="s1" d="m403.5 650.8h80.7v38.3h-80.7z"/>
	<path id="Layer" class="s1" d="m403.5 689.3h80.7v38.3h-80.7z"/>
	<path id="Layer" class="s1" d="m403.5 920.7h80.7v38.3h-80.7z"/>
	<path id="Layer" class="s1" d="m403.5 727.9h80.7v38.3h-80.7z"/>
	<path id="Layer" class="s1" d="m403.5 766.5h80.7v38.2h-80.7z"/>
	<path id="Layer" class="s1" d="m403.5 805h80.7v38.3h-80.7z"/>
	<path id="Layer" class="s1" d="m403.5 843.6h80.7v38.3h-80.7z"/>
	<path id="Layer" class="s1" d="m403.5 882.2h80.7v38.2h-80.7z"/>
	<path id="Layer" class="s1" d="m484.2 0h80.8v38.3h-80.8z"/>
	<path id="Layer" class="s1" d="m484.2 38.3h80.8v38.3h-80.8z"/>
	<path id="Layer" class="s1" d="m484.2 76.6h80.8v38.2h-80.8z"/>
	<path id="Layer" class="s1" d="m484.2 114.8h80.8v38.3h-80.8z"/>
	<path id="Layer" class="s1" d="m484.2 153.1h80.8v38.3h-80.8z"/>
	<path id="Layer" class="s1" d="m484.2 191.4h80.8v38.3h-80.8z"/>
	<path id="Layer" class="s1" d="m484.2 229.7h80.8v38.3h-80.8z"/>
	<path id="Layer" class="s1" d="m484.2 268h80.8v38.2h-80.8z"/>
	<path id="Layer" class="s1" d="m484.2 306.2h80.8v38.3h-80.8z"/>
	<path id="Layer" class="s1" d="m484.2 344.5h80.8v38.3h-80.8z"/>
	<path id="Layer" class="s1" d="m484.2 382.8h80.8v38.3h-80.8z"/>
	<path id="Layer" class="s1" d="m484.2 421.1h80.8v38.3h-80.8z"/>
	<path id="Layer" class="s1" d="m484.2 459.4h80.8v38.2h-80.8z"/>
	<path id="Layer" class="s1" d="m484.2 497.6h80.8v38.3h-80.8z"/>
	<path id="Layer" class="s1" d="m484.2 535.9h80.8v38.3h-80.8z"/>
	<path id="Layer" class="s1" d="m484.2 574.2h80.8v38.3h-80.8z"/>
	<path id="Layer" class="s1" d="m484.2 612.5h80.8v38.3h-80.8z"/>
	<path id="Layer" class="s1" d="m484.2 650.8h80.8v38.3h-80.8z"/>
	<path id="Layer" class="s1" d="m484.2 920.7h80.8v38.3h-80.8z"/>
	<path id="Layer" class="s1" d="m484.2 689.3h80.8v38.3h-80.8z"/>
	<path id="Layer" class="s1" d="m484.2 727.9h80.8v38.3h-80.8z"/>
	<path id="Layer" class="s1" d="m484.2 766.5h80.8v38.2h-80.8z"/>
	<path id="Layer" class="s1" d="m484.2 805h80.8v38.3h-80.8z"/>
	<path id="Layer" class="s1" d="m484.2 843.6h80.8v38.3h-80.8z"/>
	<path id="Layer" class="s1" d="m484.2 882.2h80.8v38.2h-80.8z"/>
	<path id="Layer" class="s1" d="m565 0h80.7v38.3h-80.7z"/>
	<path id="Layer" class="s1" d="m565 38.3h80.7v38.3h-80.7z"/>
	<path id="Layer" class="s1" d="m565 76.6h80.7v38.2h-80.7z"/>
	<path id="Layer" class="s1" d="m565 114.8h80.7v38.3h-80.7z"/>
	<path id="Layer" class="s1" d="m565 153.1h80.7v38.3h-80.7z"/>
	<path id="Layer" class="s1" d="m565 191.4h80.7v38.3h-80.7z"/>
	<path id="Layer" class="s1" d="m565 229.7h80.7v38.3h-80.7z"/>
	<path id="Layer" class="s1" d="m565 268h80.7v38.2h-80.7z"/>
	<path id="Layer" class="s1" d="m565 306.2h80.7v38.3h-80.7z"/>
	<path id="Layer" class="s1" d="m565 344.5h80.7v38.3h-80.7z"/>
	<path id="Layer" class="s1" d="m565 382.8h80.7v38.3h-80.7z"/>
	<path id="Layer" class="s1" d="m565 421.1h80.7v38.3h-80.7z"/>
	<path id="Layer" class="s1" d="m565 459.4h80.7v38.2h-80.7z"/>
	<path id="Layer" class="s1" d="m565 497.6h80.7v38.3h-80.7z"/>
	<path id="Layer" class="s1" d="m565 535.9h80.7v38.3h-80.7z"/>
	<path id="Layer" class="s1" d="m565 574.2h80.7v38.3h-80.7z"/>
	<path id="Layer" class="s1" d="m565 612.5h80.7v38.3h-80.7z"/>
	<path id="Layer" class="s1" d="m565 920.7h80.7v38.3h-80.7z"/>
	<path id="Layer" class="s1" d="m565 650.8h80.7v38.3h-80.7z"/>
	<path id="Layer" class="s1" d="m565 689.3h80.7v38.3h-80.7z"/>
	<path id="Layer" class="s1" d="m565 727.9h80.7v38.3h-80.7z"/>
	<path id="Layer" class="s1" d="m565 766.5h80.7v38.2h-80.7z"/>
	<path id="Layer" class="s1" d="m565 805h80.7v38.3h-80.7z"/>
	<path id="Layer" class="s1" d="m565 843.6h80.7v38.3h-80.7z"/>
	<path id="Layer" class="s1" d="m565 882.2h80.7v38.2h-80.7z"/>
	<path id="Layer" class="s1" d="m645.7 0h80.7v38.3h-80.7z"/>
	<path id="Layer" class="s1" d="m645.7 38.3h80.7v38.3h-80.7z"/>
	<path id="Layer" class="s1" d="m645.7 76.6h80.7v38.2h-80.7z"/>
	<path id="Layer" class="s1" d="m645.7 114.8h80.7v38.3h-80.7z"/>
	<path id="Layer" class="s1" d="m645.7 153.1h80.7v38.3h-80.7z"/>
	<path id="Layer" class="s1" d="m645.7 191.4h80.7v38.3h-80.7z"/>
	<path id="Layer" class="s1" d="m645.7 229.7h80.7v38.3h-80.7z"/>
	<path id="Layer" class="s1" d="m645.7 268h80.7v38.2h-80.7z"/>
	<path id="Layer" class="s1" d="m645.7 306.2h80.7v38.3h-80.7z"/>
	<path id="Layer" class="s1" d="m645.7 344.5h80.7v38.3h-80.7z"/>
	<path id="Layer" class="s1" d="m645.7 382.8h80.7v38.3h-80.7z"/>
	<path id="Layer" class="s1" d="m645.7 421.1h80.7v38.3h-80.7z"/>
	<path id="Layer" class="s1" d="m645.7 459.4h80.7v38.2h-80.7z"/>
	<path id="Layer" class="s1" d="m645.7 497.6h80.7v38.3h-80.7z"/>
	<path id="Layer" class="s1" d="m645.7 535.9h80.7v38.3h-80.7z"/>
	<path id="Layer" class="s1" d="m645.7 574.2h80.7v38.3h-80.7z"/>
	<path id="Layer" class="s1" d="m645.7 920.7h80.7v38.3h-80.7z"/>
	<path id="Layer" class="s1" d="m645.7 612.5h80.7v38.3h-80.7z"/>
	<path id="Layer" class="s1" d="m645.7 650.8h80.7v38.3h-80.7z"/>
	<path id="Layer" class="s1" d="m645.7 689.3h80.7v38.3h-80.7z"/>
	<path id="Layer" class="s1" d="m645.7 727.9h80.7v38.3h-80.7z"/>
	<path id="Layer" class="s1" d="m645.7 766.5h80.7v38.2h-80.7z"/>
	<path id="Layer" class="s1" d="m645.7 805h80.7v38.3h-80.7z"/>
	<path id="Layer" class="s1" d="m645.7 843.6h80.7v38.3h-80.7z"/>
	<path id="Layer" class="s1" d="m645.7 882.2h80.7v38.2h-80.7z"/>
	<path id="Layer" class="s1" d="m726.4 0h80.7v38.3h-80.7z"/>
	<path id="Layer" class="s1" d="m726.4 38.3h80.7v38.3h-80.7z"/>
	<path id="Layer" class="s1" d="m726.4 76.6h80.7v38.2h-80.7z"/>
	<path id="Layer" class="s1" d="m726.4 114.8h80.7v38.3h-80.7z"/>
	<path id="Layer" class="s1" d="m726.4 153.1h80.7v38.3h-80.7z"/>
	<path id="Layer" class="s1" d="m726.4 191.4h80.7v38.3h-80.7z"/>
	<path id="Layer" class="s1" d="m726.4 229.7h80.7v38.3h-80.7z"/>
	<path id="Layer" class="s1" d="m726.4 268h80.7v38.2h-80.7z"/>
	<path id="Layer" class="s1" d="m726.4 306.2h80.7v38.3h-80.7z"/>
	<path id="Layer" class="s1" d="m726.4 344.5h80.7v38.3h-80.7z"/>
	<path id="Layer" class="s1" d="m726.4 382.8h80.7v38.3h-80.7z"/>
	<path id="Layer" class="s1" d="m726.4 421.1h80.7v38.3h-80.7z"/>
	<path id="Layer" class="s1" d="m726.4 459.4h80.7v38.2h-80.7z"/>
	<path id="Layer" class="s1" d="m726.4 497.6h80.7v38.3h-80.7z"/>
	<path id="Layer" class="s1" d="m726.4 535.9h80.7v38.3h-80.7z"/>
	<path id="Layer" class="s1" d="m726.4 920.7h80.7v38.3h-80.7z"/>
	<path id="Layer" class="s1" d="m726.4 574.2h80.7v38.3h-80.7z"/>
	<path id="Layer" class="s1" d="m726.4 612.5h80.7v38.3h-80.7z"/>
	<path id="Layer" class="s1" d="m726.4 650.8h80.7v38.3h-80.7z"/>
	<path id="Layer" class="s1" d="m726.4 689.3h80.7v38.3h-80.7z"/>
	<path id="Layer" class="s1" d="m726.4 727.9h80.7v38.3h-80.7z"/>
	<path id="Layer" class="s1" d="m726.4 766.5h80.7v38.2h-80.7z"/>
	<path id="Layer" class="s1" d="m726.4 805h80.7v38.3h-80.7z"/>
	<path id="Layer" class="s1" d="m726.4 843.6h80.7v38.3h-80.7z"/>
	<path id="Layer" class="s1" d="m726.4 882.2h80.7v38.2h-80.7z"/>
	<path id="Layer" class="s1" d="m807.1 0h80.7v38.3h-80.7z"/>
	<path id="Layer" class="s1" d="m807.1 38.3h80.7v38.3h-80.7z"/>
	<path id="Layer" class="s1" d="m807.1 76.6h80.7v38.2h-80.7z"/>
	<path id="Layer" class="s1" d="m807.1 114.8h80.7v38.3h-80.7z"/>
	<path id="Layer" class="s1" d="m807.1 153.1h80.7v38.3h-80.7z"/>
	<path id="Layer" class="s1" d="m807.1 191.4h80.7v38.3h-80.7z"/>
	<path id="Layer" class="s1" d="m807.1 229.7h80.7v38.3h-80.7z"/>
	<path id="Layer" class="s1" d="m807.1 268h80.7v38.2h-80.7z"/>
	<path id="Layer" class="s1" d="m807.1 306.2h80.7v38.3h-80.7z"/>
	<path id="Layer" class="s1" d="m807.1 344.5h80.7v38.3h-80.7z"/>
	<path id="Layer" class="s1" d="m807.1 382.8h80.7v38.3h-80.7z"/>
	<path id="Layer" class="s1" d="m807.1 421.1h80.7v38.3h-80.7z"/>
	<path id="Layer" class="s1" d="m807.1 459.4h80.7v38.2h-80.7z"/>
	<path id="Layer" class="s1" d="m807.1 497.6h80.7v38.3h-80.7z"/>
	<path id="Layer" class="s1" d="m807.1 535.9h80.7v38.3h-80.7z"/>
	<path id="Layer" class="s1" d="m807.1 574.2h80.7v38.3h-80.7z"/>
	<path id="Layer" class="s1" d="m807.1 612.5h80.7v38.3h-80.7z"/>
	<path id="Layer" class="s1" d="m807.1 650.8h80.7v38.3h-80.7z"/>
	<path id="Layer" class="s1" d="m807.1 650.8h80.7v38.3h-80.7z"/>
	<path id="Layer" class="s1" d="m807.1 689.3h80.7v38.3h-80.7z"/>
	<path id="Layer" class="s1" d="m807.1 727.9h80.7v38.3h-80.7z"/>
	<path id="Layer" class="s1" d="m807.1 766.5h80.7v38.2h-80.7z"/>
	<path id="Layer" class="s1" d="m807.1 805h80.7v38.3h-80.7z"/>
	<path id="Layer" class="s1" d="m807.1 843.6h80.7v38.3h-80.7z"/>
	<path id="Layer" class="s1" d="m807.1 882.2h80.7v38.2h-80.7z"/>
	<path id="Layer" class="s1" d="m807.1 920.7h80.7v38.3h-80.7z"/>
	<path id="Layer" class="s1" d="m887.8 0h80.7v38.3h-80.7z"/>
	<path id="Layer" class="s1" d="m887.8 38.3h80.7v38.3h-80.7z"/>
	<path id="Layer" class="s1" d="m887.8 76.6h80.7v38.2h-80.7z"/>
	<path id="Layer" class="s1" d="m887.8 114.8h80.7v38.3h-80.7z"/>
	<path id="Layer" class="s1" d="m887.8 153.1h80.7v38.3h-80.7z"/>
	<path id="Layer" class="s1" d="m887.8 191.4h80.7v38.3h-80.7z"/>
	<path id="Layer" class="s1" d="m887.8 229.7h80.7v38.3h-80.7z"/>
	<path id="Layer" class="s1" d="m887.8 268h80.7v38.2h-80.7z"/>
	<path id="Layer" class="s1" d="m887.8 306.2h80.7v38.3h-80.7z"/>
	<path id="Layer" class="s1" d="m887.8 344.5h80.7v38.3h-80.7z"/>
	<path id="Layer" class="s1" d="m887.8 382.8h80.7v38.3h-80.7z"/>
	<path id="Layer" class="s1" d="m887.8 421.1h80.7v38.3h-80.7z"/>
	<path id="Layer" class="s1" d="m887.8 459.4h80.7v38.2h-80.7z"/>
	<path id="Layer" class="s1" d="m887.8 497.6h80.7v38.3h-80.7z"/>
	<path id="Layer" class="s1" d="m887.8 535.9h80.7v38.3h-80.7z"/>
	<path id="Layer" class="s1" d="m887.8 574.2h80.7v38.3h-80.7z"/>
	<path id="Layer" class="s1" d="m887.8 612.5h80.7v38.3h-80.7z"/>
	<path id="Layer" class="s1" d="m968.5 0h80.7v38.3h-80.7z"/>
	<path id="Layer" class="s1" d="m968.5 38.3h80.7v38.3h-80.7z"/>
	<path id="Layer" class="s1" d="m968.5 76.6h80.7v38.2h-80.7z"/>
	<path id="Layer" class="s1" d="m968.5 114.8h80.7v38.3h-80.7z"/>
	<path id="Layer" class="s1" d="m968.5 153.1h80.7v38.3h-80.7z"/>
	<path id="Layer" class="s1" d="m968.5 191.4h80.7v38.3h-80.7z"/>
	<path id="Layer" class="s1" d="m968.5 229.7h80.7v38.3h-80.7z"/>
	<path id="Layer" class="s1" d="m968.5 268h80.7v38.2h-80.7z"/>
	<path id="Layer" class="s1" d="m968.5 306.2h80.7v38.3h-80.7z"/>
	<path id="Layer" class="s1" d="m968.5 344.5h80.7v38.3h-80.7z"/>
	<path id="Layer" class="s1" d="m968.5 382.8h80.7v38.3h-80.7z"/>
	<path id="Layer" class="s1" d="m968.5 421.1h80.7v38.3h-80.7z"/>
	<path id="Layer" class="s1" d="m968.5 459.4h80.7v38.2h-80.7z"/>
	<path id="Layer" class="s1" d="m968.5 497.6h80.7v38.3h-80.7z"/>
	<path id="Layer" class="s1" d="m968.5 535.9h80.7v38.3h-80.7z"/>
	<path id="Layer" class="s1" d="m968.5 574.2h80.7v38.3h-80.7z"/>
	<path id="Layer" class="s1" d="m968.5 612.5h80.7v38.3h-80.7z"/>
	<path id="Layer" class="s1" d="m1049.2 0h80.7v38.3h-80.7z"/>
	<path id="Layer" class="s1" d="m1049.2 38.3h80.7v38.3h-80.7z"/>
	<path id="Layer" class="s1" d="m1049.2 76.6h80.7v38.2h-80.7z"/>
	<path id="Layer" class="s1" d="m1049.2 114.8h80.7v38.3h-80.7z"/>
	<path id="Layer" class="s1" d="m1049.2 153.1h80.7v38.3h-80.7z"/>
	<path id="Layer" class="s1" d="m1049.2 191.4h80.7v38.3h-80.7z"/>
	<path id="Layer" class="s1" d="m1049.2 229.7h80.7v38.3h-80.7z"/>
	<path id="Layer" class="s1" d="m1049.2 268h80.7v38.2h-80.7z"/>
	<path id="Layer" class="s1" d="m1049.2 306.2h80.7v38.3h-80.7z"/>
	<path id="Layer" class="s1" d="m1049.2 344.5h80.7v38.3h-80.7z"/>
	<path id="Layer" class="s1" d="m1049.2 382.8h80.7v38.3h-80.7z"/>
	<path id="Layer" class="s1" d="m1049.2 421.1h80.7v38.3h-80.7z"/>
	<path id="Layer" class="s1" d="m1049.2 459.4h80.7v38.2h-80.7z"/>
	<path id="Layer" class="s1" d="m1049.2 497.6h80.7v38.3h-80.7z"/>
	<path id="Layer" class="s1" d="m1049.2 535.9h80.7v38.3h-80.7z"/>
	<path id="Layer" class="s1" d="m1049.2 574.2h80.7v38.3h-80.7z"/>
	<path id="Layer" class="s1" d="m1049.2 612.5h80.7v38.3h-80.7z"/>
	<path id="Layer" class="s1" d="m1129.9 0h80.7v38.3h-80.7z"/>
	<path id="Layer" class="s1" d="m1129.9 38.3h80.7v38.3h-80.7z"/>
	<path id="Layer" class="s1" d="m1129.9 76.6h80.7v38.2h-80.7z"/>
	<path id="Layer" class="s1" d="m1129.9 114.8h80.7v38.3h-80.7z"/>
	<path id="Layer" class="s1" d="m1129.9 153.1h80.7v38.3h-80.7z"/>
	<path id="Layer" class="s1" d="m1129.9 191.4h80.7v38.3h-80.7z"/>
	<path id="Layer" class="s1" d="m1129.9 229.7h80.7v38.3h-80.7z"/>
	<path id="Layer" class="s1" d="m1129.9 268h80.7v38.2h-80.7z"/>
	<path id="Layer" class="s1" d="m1129.9 306.2h80.7v38.3h-80.7z"/>
	<path id="Layer" class="s1" d="m1129.9 344.5h80.7v38.3h-80.7z"/>
	<path id="Layer" class="s1" d="m1129.9 382.8h80.7v38.3h-80.7z"/>
	<path id="Layer" class="s1" d="m1129.9 421.1h80.7v38.3h-80.7z"/>
	<path id="Layer" class="s1" d="m1129.9 459.4h80.7v38.2h-80.7z"/>
	<path id="Layer" class="s1" d="m1129.9 497.6h80.7v38.3h-80.7z"/>
	<path id="Layer" class="s1" d="m1129.9 535.9h80.7v38.3h-80.7z"/>
	<path id="Layer" class="s1" d="m1129.9 574.2h80.7v38.3h-80.7z"/>
	<path id="Layer" class="s1" d="m1129.9 612.5h80.7v38.3h-80.7z"/>
	<path id="Layer" class="s1" d="m1210.6 0h80.7v38.3h-80.7z"/>
	<path id="Layer" class="s1" d="m1210.6 38.3h80.7v38.3h-80.7z"/>
	<path id="Layer" class="s1" d="m1210.6 76.6h80.7v38.2h-80.7z"/>
	<path id="Layer" class="s1" d="m1210.6 114.8h80.7v38.3h-80.7z"/>
	<path id="Layer" class="s1" d="m1210.6 153.1h80.7v38.3h-80.7z"/>
	<path id="Layer" class="s1" d="m1210.6 191.4h80.7v38.3h-80.7z"/>
	<path id="Layer" class="s1" d="m1210.6 229.7h80.7v38.3h-80.7z"/>
	<path id="Layer" class="s1" d="m1210.6 268h80.7v38.2h-80.7z"/>
	<path id="Layer" class="s1" d="m1210.6 306.2h80.7v38.3h-80.7z"/>
	<path id="Layer" class="s1" d="m1210.6 344.5h80.7v38.3h-80.7z"/>
	<path id="Layer" class="s1" d="m1210.6 382.8h80.7v38.3h-80.7z"/>
	<path id="Layer" class="s1" d="m1210.6 421.1h80.7v38.3h-80.7z"/>
	<path id="Layer" class="s1" d="m1210.6 459.4h80.7v38.2h-80.7z"/>
	<path id="Layer" class="s1" d="m1210.6 497.6h80.7v38.3h-80.7z"/>
	<path id="Layer" class="s1" d="m1210.6 535.9h80.7v38.3h-80.7z"/>
	<path id="Layer" class="s1" d="m1210.6 574.2h80.7v38.3h-80.7z"/>
	<path id="Layer" class="s1" d="m1210.6 612.5h80.7v38.3h-80.7z"/>
	<path id="Layer" class="s1" d="m1291.3 0h80.7v38.3h-80.7z"/>
	<path id="Layer" class="s1" d="m1291.3 38.3h80.7v38.3h-80.7z"/>
	<path id="Layer" class="s1" d="m1291.3 76.6h80.7v38.2h-80.7z"/>
	<path id="Layer" class="s1" d="m1291.3 114.8h80.7v38.3h-80.7z"/>
	<path id="Layer" class="s1" d="m1291.3 153.1h80.7v38.3h-80.7z"/>
	<path id="Layer" class="s1" d="m1291.3 191.4h80.7v38.3h-80.7z"/>
	<path id="Layer" class="s1" d="m1291.3 229.7h80.7v38.3h-80.7z"/>
	<path id="Layer" class="s1" d="m1291.3 268h80.7v38.2h-80.7z"/>
	<path id="Layer" class="s1" d="m1291.3 306.2h80.7v38.3h-80.7z"/>
	<path id="Layer" class="s1" d="m1291.3 344.5h80.7v38.3h-80.7z"/>
	<path id="Layer" class="s1" d="m1291.3 382.8h80.7v38.3h-80.7z"/>
	<path id="Layer" class="s1" d="m1291.3 421.1h80.7v38.3h-80.7z"/>
	<path id="Layer" class="s1" d="m1291.3 459.4h80.7v38.2h-80.7z"/>
	<path id="Layer" class="s1" d="m1291.3 497.6h80.7v38.3h-80.7z"/>
	<path id="Layer" class="s1" d="m1291.3 535.9h80.7v38.3h-80.7z"/>
	<path id="Layer" class="s1" d="m1291.3 574.2h80.7v38.3h-80.7z"/>
	<path id="Layer" class="s1" d="m1291.3 612.5h80.7v38.3h-80.7z"/>
	<path id="Layer" class="s1" d="m1372 0h80.7v38.3h-80.7z"/>
	<path id="Layer" class="s1" d="m1372 38.3h80.7v38.3h-80.7z"/>
	<path id="Layer" class="s1" d="m1372 76.6h80.7v38.2h-80.7z"/>
	<path id="Layer" class="s1" d="m1372 114.8h80.7v38.3h-80.7z"/>
	<path id="Layer" class="s1" d="m1372 153.1h80.7v38.3h-80.7z"/>
	<path id="Layer" class="s1" d="m1372 191.4h80.7v38.3h-80.7z"/>
	<path id="Layer" class="s1" d="m1372 229.7h80.7v38.3h-80.7z"/>
	<path id="Layer" class="s1" d="m1372 268h80.7v38.2h-80.7z"/>
	<path id="Layer" class="s1" d="m1372 306.2h80.7v38.3h-80.7z"/>
	<path id="Layer" class="s1" d="m1372 344.5h80.7v38.3h-80.7z"/>
	<path id="Layer" class="s1" d="m1372 382.8h80.7v38.3h-80.7z"/>
	<path id="Layer" class="s1" d="m1372 421.1h80.7v38.3h-80.7z"/>
	<path id="Layer" class="s1" d="m1372 459.4h80.7v38.2h-80.7z"/>
	<path id="Layer" class="s1" d="m1372 497.6h80.7v38.3h-80.7z"/>
	<path id="Layer" class="s1" d="m1372 535.9h80.7v38.3h-80.7z"/>
	<path id="Layer" class="s1" d="m1372 574.2h80.7v38.3h-80.7z"/>
	<path id="Layer" class="s1" d="m1372 612.5h80.7v38.3h-80.7z"/>
	<path id="Layer" class="s1" d="m1452.7 0h80.7v38.3h-80.7z"/>
	<path id="Layer" class="s1" d="m1452.7 38.3h80.7v38.3h-80.7z"/>
	<path id="Layer" class="s1" d="m1452.7 76.6h80.7v38.2h-80.7z"/>
	<path id="Layer" class="s1" d="m1452.7 114.8h80.7v38.3h-80.7z"/>
	<path id="Layer" class="s1" d="m1452.7 153.1h80.7v38.3h-80.7z"/>
	<path id="Layer" class="s1" d="m1452.7 191.4h80.7v38.3h-80.7z"/>
	<path id="Layer" class="s1" d="m1452.7 229.7h80.7v38.3h-80.7z"/>
	<path id="Layer" class="s1" d="m1452.7 268h80.7v38.2h-80.7z"/>
	<path id="Layer" class="s1" d="m1452.7 306.2h80.7v38.3h-80.7z"/>
	<path id="Layer" class="s1" d="m1452.7 344.5h80.7v38.3h-80.7z"/>
	<path id="Layer" class="s1" d="m1452.7 382.8h80.7v38.3h-80.7z"/>
	<path id="Layer" class="s1" d="m1452.7 421.1h80.7v38.3h-80.7z"/>
	<path id="Layer" class="s1" d="m1452.7 459.4h80.7v38.2h-80.7z"/>
	<path id="Layer" class="s1" d="m1452.7 497.6h80.7v38.3h-80.7z"/>
	<path id="Layer" class="s1" d="m1452.7 535.9h80.7v38.3h-80.7z"/>
	<path id="Layer" class="s1" d="m1452.7 574.2h80.7v38.3h-80.7z"/>
	<path id="Layer" class="s1" d="m1452.7 612.5h80.7v38.3h-80.7z"/>
	<path id="Layer" class="s1" d="m1533.4 0h80.7v38.3h-80.7z"/>
	<path id="Layer" class="s1" d="m1533.4 38.3h80.7v38.3h-80.7z"/>
	<path id="Layer" class="s1" d="m1533.4 76.6h80.7v38.2h-80.7z"/>
	<path id="Layer" class="s1" d="m1533.4 114.8h80.7v38.3h-80.7z"/>
	<path id="Layer" class="s1" d="m1533.4 153.1h80.7v38.3h-80.7z"/>
	<path id="Layer" class="s1" d="m1533.4 191.4h80.7v38.3h-80.7z"/>
	<path id="Layer" class="s1" d="m1533.4 229.7h80.7v38.3h-80.7z"/>
	<path id="Layer" class="s1" d="m1533.4 268h80.7v38.2h-80.7z"/>
	<path id="Layer" class="s1" d="m1533.4 306.2h80.7v38.3h-80.7z"/>
	<path id="Layer" class="s1" d="m1533.4 344.5h80.7v38.3h-80.7z"/>
	<path id="Layer" class="s1" d="m1533.4 382.8h80.7v38.3h-80.7z"/>
	<path id="Layer" class="s1" d="m1533.4 421.1h80.7v38.3h-80.7z"/>
	<path id="Layer" class="s1" d="m1533.4 459.4h80.7v38.2h-80.7z"/>
	<path id="Layer" class="s1" d="m1533.4 497.6h80.7v38.3h-80.7z"/>
	<path id="Layer" class="s1" d="m1533.4 535.9h80.7v38.3h-80.7z"/>
	<path id="Layer" class="s1" d="m1533.4 574.2h80.7v38.3h-80.7z"/>
	<path id="Layer" class="s1" d="m1533.4 612.5h80.7v38.3h-80.7z"/>
	<path id="Layer" class="s1" d="m1614.2 0h80.7v38.3h-80.7z"/>
	<path id="Layer" class="s1" d="m1614.2 38.3h80.7v38.3h-80.7z"/>
	<path id="Layer" class="s1" d="m1614.2 76.6h80.7v38.2h-80.7z"/>
	<path id="Layer" class="s1" d="m1614.2 114.8h80.7v38.3h-80.7z"/>
	<path id="Layer" class="s1" d="m1614.2 153.1h80.7v38.3h-80.7z"/>
	<path id="Layer" class="s1" d="m1614.2 191.4h80.7v38.3h-80.7z"/>
	<path id="Layer" class="s1" d="m1614.2 229.7h80.7v38.3h-80.7z"/>
	<path id="Layer" class="s1" d="m1614.2 268h80.7v38.2h-80.7z"/>
	<path id="Layer" class="s1" d="m1614.2 306.2h80.7v38.3h-80.7z"/>
	<path id="Layer" class="s1" d="m1614.2 344.5h80.7v38.3h-80.7z"/>
	<path id="Layer" class="s1" d="m1614.2 382.8h80.7v38.3h-80.7z"/>
	<path id="Layer" class="s1" d="m1614.2 421.1h80.7v38.3h-80.7z"/>
	<path id="Layer" class="s1" d="m1614.2 459.4h80.7v38.2h-80.7z"/>
	<path id="Layer" class="s1" d="m1614.2 497.6h80.7v38.3h-80.7z"/>
	<path id="Layer" class="s1" d="m1614.2 535.9h80.7v38.3h-80.7z"/>
	<path id="Layer" class="s1" d="m1614.2 574.2h80.7v38.3h-80.7z"/>
	<path id="Layer" class="s1" d="m1614.2 612.5h80.7v38.3h-80.7z"/>
	<path id="Layer" class="s1" d="m887.9 650.8h80.7v38.3h-80.7z"/>
	<path id="Layer" class="s1" d="m887.9 689.3h80.7v38.3h-80.7z"/>
	<path id="Layer" class="s1" d="m887.9 727.9h80.7v38.3h-80.7z"/>
	<path id="Layer" class="s1" d="m887.9 766.5h80.7v38.2h-80.7z"/>
	<path id="Layer" class="s1" d="m887.9 805h80.7v38.3h-80.7z"/>
	<path id="Layer" class="s1" d="m887.9 843.6h80.7v38.3h-80.7z"/>
	<path id="Layer" class="s1" d="m887.9 882.2h80.7v38.2h-80.7z"/>
	<path id="Layer" class="s1" d="m887.9 920.7h80.7v38.3h-80.7z"/>
	<path id="Layer" class="s1" d="m968.6 650.8h80.7v38.3h-80.7z"/>
	<path id="Layer" class="s1" d="m968.6 689.3h80.7v38.3h-80.7z"/>
	<path id="Layer" class="s1" d="m968.6 727.9h80.7v38.3h-80.7z"/>
	<path id="Layer" class="s1" d="m968.6 766.5h80.7v38.2h-80.7z"/>
	<path id="Layer" class="s1" d="m968.6 805h80.7v38.3h-80.7z"/>
	<path id="Layer" class="s1" d="m968.6 843.6h80.7v38.3h-80.7z"/>
	<path id="Layer" class="s1" d="m968.6 882.2h80.7v38.2h-80.7z"/>
	<path id="Layer" class="s1" d="m968.6 920.7h80.7v38.3h-80.7z"/>
	<path id="Layer" class="s1" d="m1049.3 650.8h80.7v38.3h-80.7z"/>
	<path id="Layer" class="s1" d="m1049.3 689.3h80.7v38.3h-80.7z"/>
	<path id="Layer" class="s1" d="m1049.3 727.9h80.7v38.3h-80.7z"/>
	<path id="Layer" class="s1" d="m1049.3 766.5h80.7v38.2h-80.7z"/>
	<path id="Layer" class="s1" d="m1049.3 805h80.7v38.3h-80.7z"/>
	<path id="Layer" class="s1" d="m1049.3 843.6h80.7v38.3h-80.7z"/>
	<path id="Layer" class="s1" d="m1049.3 882.2h80.7v38.2h-80.7z"/>
	<path id="Layer" class="s1" d="m1049.3 920.7h80.7v38.3h-80.7z"/>
	<path id="Layer" class="s1" d="m1130 650.8h80.8v38.3h-80.8z"/>
	<path id="Layer" class="s1" d="m1130 689.3h80.8v38.3h-80.8z"/>
	<path id="Layer" class="s1" d="m1130 727.9h80.8v38.3h-80.8z"/>
	<path id="Layer" class="s1" d="m1130 766.5h80.8v38.2h-80.8z"/>
	<path id="Layer" class="s1" d="m1130 805h80.8v38.3h-80.8z"/>
	<path id="Layer" class="s1" d="m1130 843.6h80.8v38.3h-80.8z"/>
	<path id="Layer" class="s1" d="m1130 882.2h80.8v38.2h-80.8z"/>
	<path id="Layer" class="s1" d="m1130 920.7h80.8v38.3h-80.8z"/>
	<path id="Layer" class="s1" d="m1210.8 650.8h80.7v38.3h-80.7z"/>
	<path id="Layer" class="s1" d="m1210.8 689.3h80.7v38.3h-80.7z"/>
	<path id="Layer" class="s1" d="m1210.8 727.9h80.7v38.3h-80.7z"/>
	<path id="Layer" class="s1" d="m1210.8 766.5h80.7v38.2h-80.7z"/>
	<path id="Layer" class="s1" d="m1210.8 805h80.7v38.3h-80.7z"/>
	<path id="Layer" class="s1" d="m1210.8 843.6h80.7v38.3h-80.7z"/>
	<path id="Layer" class="s1" d="m1210.8 882.2h80.7v38.2h-80.7z"/>
	<path id="Layer" class="s1" d="m1210.8 920.7h80.7v38.3h-80.7z"/>
	<path id="Layer" class="s1" d="m1291.5 650.8h80.7v38.3h-80.7z"/>
	<path id="Layer" class="s1" d="m1291.5 689.3h80.7v38.3h-80.7z"/>
	<path id="Layer" class="s1" d="m1291.5 727.9h80.7v38.3h-80.7z"/>
	<path id="Layer" class="s1" d="m1291.5 766.5h80.7v38.2h-80.7z"/>
	<path id="Layer" class="s1" d="m1291.5 805h80.7v38.3h-80.7z"/>
	<path id="Layer" class="s1" d="m1291.5 843.6h80.7v38.3h-80.7z"/>
	<path id="Layer" class="s1" d="m1291.5 882.2h80.7v38.2h-80.7z"/>
	<path id="Layer" class="s1" d="m1291.5 920.7h80.7v38.3h-80.7z"/>
	<path id="Layer" class="s1" d="m1372.2 650.8h80.7v38.3h-80.7z"/>
	<path id="Layer" class="s1" d="m1372.2 689.3h80.7v38.3h-80.7z"/>
	<path id="Layer" class="s1" d="m1372.2 727.9h80.7v38.3h-80.7z"/>
	<path id="Layer" class="s1" d="m1372.2 766.5h80.7v38.2h-80.7z"/>
	<path id="Layer" class="s1" d="m1372.2 805h80.7v38.3h-80.7z"/>
	<path id="Layer" class="s1" d="m1372.2 843.6h80.7v38.3h-80.7z"/>
	<path id="Layer" class="s1" d="m1372.2 882.2h80.7v38.2h-80.7z"/>
	<path id="Layer" class="s1" d="m1372.2 920.7h80.7v38.3h-80.7z"/>
	<path id="Layer" class="s1" d="m1452.9 650.8h80.7v38.3h-80.7z"/>
	<path id="Layer" class="s1" d="m1452.9 689.3h80.7v38.3h-80.7z"/>
	<path id="Layer" class="s1" d="m1452.9 727.9h80.7v38.3h-80.7z"/>
	<path id="Layer" class="s1" d="m1452.9 766.5h80.7v38.2h-80.7z"/>
	<path id="Layer" class="s1" d="m1452.9 805h80.7v38.3h-80.7z"/>
	<path id="Layer" class="s1" d="m1452.9 843.6h80.7v38.3h-80.7z"/>
	<path id="Layer" class="s1" d="m1452.9 882.2h80.7v38.2h-80.7z"/>
	<path id="Layer" class="s1" d="m1452.9 920.7h80.7v38.3h-80.7z"/>
	<path id="Layer" class="s1" d="m1533.6 650.8h80.7v38.3h-80.7z"/>
	<path id="Layer" class="s1" d="m1533.6 689.3h80.7v38.3h-80.7z"/>
	<path id="Layer" class="s1" d="m1533.6 727.9h80.7v38.3h-80.7z"/>
	<path id="Layer" class="s1" d="m1533.6 766.5h80.7v38.2h-80.7z"/>
	<path id="Layer" class="s1" d="m1533.6 805h80.7v38.3h-80.7z"/>
	<path id="Layer" class="s1" d="m1533.6 843.6h80.7v38.3h-80.7z"/>
	<path id="Layer" class="s1" d="m1533.6 882.2h80.7v38.2h-80.7z"/>
	<path id="Layer" class="s1" d="m1533.6 920.7h80.7v38.3h-80.7z"/>
	<path id="Layer" class="s1" d="m1614.3 650.8h80.7v38.3h-80.7z"/>
	<path id="Layer" class="s1" d="m1614.3 689.3h80.7v38.3h-80.7z"/>
	<path id="Layer" class="s1" d="m1614.3 727.9h80.7v38.3h-80.7z"/>
	<path id="Layer" class="s1" d="m1614.3 766.5h80.7v38.2h-80.7z"/>
	<path id="Layer" class="s1" d="m1614.3 805h80.7v38.3h-80.7z"/>
	<path id="Layer" class="s1" d="m1614.3 843.6h80.7v38.3h-80.7z"/>
	<path id="Layer" class="s1" d="m1614.3 882.2h80.7v38.2h-80.7z"/>
	<path id="Layer" class="s1" d="m1614.3 920.7h80.7v38.3h-80.7z"/>
</svg>